<svg xmlns="http://www.w3.org/2000/svg" x="0px" y="0px"
width="48" height="48"
viewBox="0 0 172 172"
style=" fill:#000000;"><g fill="none" fill-rule="nonzero" stroke="none" stroke-width="1" stroke-linecap="butt" stroke-linejoin="miter" stroke-miterlimit="10" stroke-dasharray="" stroke-dashoffset="0" font-family="none" font-weight="none" font-size="none" text-anchor="none" style="mix-blend-mode: normal"><path d="M0,172v-172h172v172z" fill="none"></path><g fill="#ffffff"><path d="M128.69766,37.22187c-0.03359,-7.89453 -0.30234,-15.75547 -0.57109,-23.65c-0.80625,0.57109 -1.57891,1.37734 -2.31797,1.98203c-5.00547,3.93047 -10.27969,7.59219 -15.28516,11.55625c-5.17344,4.09844 -10.38047,8.16328 -15.48672,12.39609c-2.45234,2.01563 -4.87109,4.09844 -7.25625,6.18125c-1.27656,1.10859 -2.55312,2.25078 -3.79609,3.39297c-0.80625,0.73906 -1.47813,1.6125 -2.62031,1.64609c-0.77266,0.03359 -1.6125,-0.36953 -1.91484,-1.10859c-8.53281,-5.61016 -17.80469,-9.91016 -26.47188,-15.31875c-4.50156,-2.78828 -8.86875,-5.77813 -13.37031,-8.49922c-2.72109,-1.6125 -6.01328,-3.09063 -8.36484,-5.30781c0.13438,3.02344 0.26875,6.04688 0,9.03672c-0.16797,1.84766 -0.40312,3.66172 -0.50391,5.50938c-0.06719,1.57891 0.20156,3.09063 -0.20156,4.63594c-0.26875,1.00781 -1.10859,2.95625 -0.30234,3.82969c0.87344,1.00781 2.11641,1.71328 3.25859,2.35156c2.95625,1.64609 5.87891,3.29219 8.86875,4.8375c6.92031,3.59453 13.60547,7.62578 20.49219,11.2875c3.49375,1.88125 7.12187,3.52734 10.64922,5.34141c2.85547,1.47812 5.67734,3.02344 8.6,4.36719c9.54062,-6.95391 19.78672,-12.79922 29.59609,-19.35c4.93828,-3.29219 9.77578,-6.75234 14.31094,-10.61563c0.70547,-0.60469 1.41094,-1.17578 2.15,-1.74687c-1.04141,-0.80625 -0.50391,-2.18359 0.5375,-2.75469zM131.78828,124.06172c-0.03359,-7.89453 -0.30234,-15.75547 -0.57109,-23.65c-0.80625,0.57109 -1.57891,1.37734 -2.31797,1.98203c-5.00547,3.93047 -10.27969,7.59219 -15.28516,11.55625c-5.17344,4.09844 -10.38047,8.16328 -15.48672,12.39609c-2.45234,2.01563 -4.87109,4.09844 -7.25625,6.18125c-1.27656,1.10859 -2.55313,2.25078 -3.79609,3.39297c-0.80625,0.73906 -1.47813,1.6125 -2.62031,1.64609c-0.77266,0.03359 -1.6125,-0.36953 -1.91484,-1.10859c-8.53281,-5.61016 -17.80469,-9.91016 -26.47188,-15.31875c-4.50156,-2.78828 -8.86875,-5.77813 -13.37031,-8.49922c-2.65391,-1.6125 -5.97969,-3.09062 -8.33125,-5.34141c0.13437,3.02344 0.26875,6.04688 0,9.03672c-0.16797,1.84766 -0.40313,3.66172 -0.50391,5.50937c-0.06719,1.57891 0.20156,3.09063 -0.20156,4.63594c-0.26875,1.00781 -1.10859,2.95625 -0.30234,3.82969c0.87344,1.00781 2.11641,1.71328 3.25859,2.35156c2.95625,1.64609 5.87891,3.29219 8.86875,4.8375c6.92031,3.59453 13.60547,7.62578 20.49219,11.2875c3.49375,1.88125 7.12188,3.52734 10.64922,5.34141c2.85547,1.47813 5.67734,3.02344 8.6,4.36719c9.54063,-6.95391 19.78672,-12.79922 29.59609,-19.35c4.93828,-3.29219 9.77578,-6.75234 14.31094,-10.61563c0.70547,-0.60469 1.41094,-1.17578 2.15,-1.74687c-1.075,-0.77266 -0.5375,-2.15 0.50391,-2.72109z"></path><path d="M130.20938,80.28906c-0.03359,-7.89453 -0.30234,-15.75547 -0.57109,-23.65c-0.80625,0.57109 -1.57891,1.37734 -2.31797,1.98203c-5.00547,3.93047 -10.27969,7.59219 -15.28516,11.55625c-5.20703,4.09844 -10.38047,8.16328 -15.48672,12.39609c-2.45234,2.01563 -4.87109,4.09844 -7.25625,6.18125c-1.27656,1.10859 -2.55312,2.25078 -3.79609,3.39297c-0.80625,0.73906 -1.47813,1.6125 -2.62031,1.64609c-0.77266,0.03359 -1.6125,-0.36953 -1.91484,-1.10859c-8.53281,-5.61016 -17.80469,-9.91016 -26.47188,-15.31875c-4.50156,-2.78828 -8.86875,-5.77813 -13.37031,-8.49922c-2.65391,-1.6125 -5.97969,-3.09062 -8.33125,-5.34141c0.13437,3.02344 0.26875,6.04688 0,9.03672c-0.16797,1.84766 -0.40313,3.66172 -0.50391,5.50938c-0.06719,1.57891 0.20156,3.09063 -0.20156,4.63594c-0.26875,1.00781 -1.10859,2.95625 -0.30234,3.82969c0.87344,1.00781 2.11641,1.71328 3.25859,2.35156c2.95625,1.64609 5.87891,3.29219 8.86875,4.8375c6.92031,3.59453 13.60547,7.62578 20.49219,11.2875c3.49375,1.88125 7.12187,3.52734 10.64922,5.34141c2.85547,1.47812 5.67734,3.02344 8.6,4.36719c9.54063,-6.95391 19.78672,-12.79922 29.59609,-19.35c4.93828,-3.29219 9.77578,-6.75234 14.31094,-10.61563c0.70547,-0.60469 1.41094,-1.17578 2.15,-1.74687c-1.04141,-0.77266 -0.50391,-2.15 0.50391,-2.72109z"></path><path d="M132.79609,36.44922c-0.13438,0.10078 -0.30234,0.23516 -0.43672,0.33594c-0.06719,-8.56641 -0.33594,-17.13281 -0.63828,-25.66562c0.87344,-1.34375 0.20156,-2.98984 -1.6125,-3.42656c-1.27656,-0.33594 -2.04922,0.67188 -2.04922,1.71328c-0.16797,0.10078 -0.33594,0.20156 -0.50391,0.26875c-0.94063,0.50391 -1.78047,1.14219 -2.62031,1.81406c-2.04922,1.67969 -4.23281,3.19141 -6.38281,4.77031c-4.50156,3.32578 -8.90234,6.78594 -13.30313,10.24609c-4.33359,3.42656 -8.66719,6.85312 -12.9,10.41406c-2.11641,1.74688 -4.19922,3.56094 -6.28203,5.34141c-0.97422,0.83984 -1.91484,1.67969 -2.85547,2.51953c-0.47031,0.43672 -0.94063,0.83984 -1.41094,1.27656c-0.03359,0.03359 -0.20156,0.16797 -0.36953,0.33594c-0.87344,-0.63828 -1.94844,-1.10859 -2.6875,-1.57891c-2.21719,-1.37734 -4.50156,-2.72109 -6.78594,-3.99766c-4.73672,-2.6875 -9.54062,-5.20703 -14.24375,-7.89453c-4.80391,-2.75469 -9.37266,-5.94609 -14.07578,-8.86875c-1.98203,-1.24297 -3.99766,-2.48594 -6.04687,-3.69531c-1.31016,-0.77266 -2.75469,-1.54531 -3.86328,-2.62031c-0.06719,-0.97422 -0.77266,-1.94844 -1.98203,-1.91484l-0.67187,0.03359c-0.33594,0 -0.60469,0.10078 -0.83984,0.26875c-1.10859,-0.50391 -2.85547,0.20156 -2.78828,1.84766c0.16797,4.3 0.40313,8.53281 -0.03359,12.83281c-0.20156,1.98203 -0.36953,3.96406 -0.36953,5.94609c0,0.83984 0.06719,1.54531 -0.16797,2.38516c-0.23516,0.90703 -0.43672,1.81406 -0.57109,2.75469c-0.50391,3.46016 2.21719,5.34141 4.8375,6.95391c3.29219,2.01563 6.78594,3.79609 10.2125,5.57656c7.69297,3.96406 15.08359,8.49922 22.77656,12.49688c3.86328,1.98203 7.76016,3.82969 11.62344,5.84531c1.84766,0.97422 3.69531,1.91484 5.61016,2.75469c0.83984,0.36953 1.6125,0.60469 2.41875,0.06719c0.33594,-0.20156 0.60469,-0.47031 0.73906,-0.83984c0.03359,-0.06719 0.03359,-0.13437 0.06719,-0.20156c9.43984,-6.85313 19.55156,-12.66484 29.26016,-19.11484c4.93828,-3.29219 9.77578,-6.78594 14.31094,-10.61563c1.54531,-1.31016 3.19141,-2.55312 4.80391,-3.79609zM128.16016,40.04375c-0.73906,0.57109 -1.44453,1.14219 -2.15,1.74687c-4.50156,3.86328 -9.37266,7.32344 -14.31094,10.61563c-9.80938,6.55078 -20.05547,12.39609 -29.59609,19.35c-2.92266,-1.34375 -5.74453,-2.88906 -8.6,-4.36719c-3.52734,-1.81406 -7.12187,-3.49375 -10.64922,-5.34141c-6.88672,-3.66172 -13.57188,-7.69297 -20.49219,-11.2875c-2.98984,-1.54531 -5.9125,-3.19141 -8.86875,-4.8375c-1.14219,-0.63828 -2.38516,-1.37734 -3.25859,-2.35156c-0.77266,-0.90703 0.06719,-2.82187 0.30234,-3.82969c0.40313,-1.54531 0.13438,-3.05703 0.20156,-4.63594c0.06719,-1.84766 0.33594,-3.69531 0.50391,-5.50937c0.26875,-2.98984 0.13438,-6.04687 0,-9.03672c2.35156,2.25078 5.64375,3.72891 8.33125,5.34141c4.53516,2.75469 8.90234,5.71094 13.37031,8.49922c8.66719,5.375 17.97266,9.675 26.47187,15.31875c0.30234,0.73906 1.14219,1.10859 1.91484,1.10859c1.17578,-0.03359 1.81406,-0.90703 2.62031,-1.64609c1.24297,-1.14219 2.51953,-2.25078 3.79609,-3.39297c2.38516,-2.08281 4.80391,-4.13203 7.25625,-6.18125c5.10625,-4.33359 10.31328,-8.39844 15.52031,-12.49687c5.00547,-3.96406 10.24609,-7.62578 15.28516,-11.55625c0.77266,-0.60469 1.51172,-1.41094 2.31797,-1.98203c0.26875,7.89453 0.50391,15.75547 0.57109,23.65c-1.04141,0.57109 -1.57891,1.94844 -0.5375,2.82187z"></path><path d="M134.34141,79.51641c-0.13438,0.10078 -0.30234,0.23516 -0.43672,0.33594c-0.06719,-8.56641 -0.33594,-17.13281 -0.63828,-25.66563c0.87344,-1.34375 0.20156,-2.98984 -1.6125,-3.42656c-1.27656,-0.33594 -2.04922,0.67188 -2.04922,1.71328c-0.16797,0.10078 -0.33594,0.20156 -0.50391,0.26875c-0.94063,0.50391 -1.78047,1.14219 -2.62031,1.81406c-2.04922,1.67969 -4.23281,3.19141 -6.38281,4.77031c-4.50156,3.32578 -8.90234,6.78594 -13.30313,10.24609c-4.33359,3.42656 -8.66719,6.85313 -12.9,10.41406c-2.11641,1.74688 -4.19922,3.56094 -6.28203,5.34141c-0.97422,0.83984 -1.91484,1.67969 -2.85547,2.51953c-0.47031,0.43672 -0.94062,0.83984 -1.41094,1.27656c-0.03359,0.03359 -0.20156,0.16797 -0.36953,0.30234c-0.87344,-0.63828 -1.94844,-1.10859 -2.6875,-1.57891c-2.21719,-1.37734 -4.50156,-2.72109 -6.78594,-3.99766c-4.73672,-2.6875 -9.54063,-5.20703 -14.24375,-7.89453c-4.80391,-2.75469 -9.37266,-5.94609 -14.07578,-8.86875c-1.98203,-1.24297 -3.99766,-2.48594 -6.04687,-3.69531c-1.31016,-0.77266 -2.75469,-1.54531 -3.86328,-2.62031c-0.06719,-0.97422 -0.77266,-1.94844 -1.98203,-1.91484l-0.67187,0.03359c-0.33594,0 -0.60469,0.10078 -0.83984,0.26875c-1.10859,-0.50391 -2.85547,0.20156 -2.78828,1.84766c0.16797,4.3 0.40312,8.53281 -0.03359,12.83281c-0.20156,1.98203 -0.36953,3.96406 -0.36953,5.94609c0,0.83984 0.06719,1.54531 -0.16797,2.38516c-0.23516,0.90703 -0.43672,1.81406 -0.57109,2.75469c-0.50391,3.46016 2.21719,5.34141 4.8375,6.95391c3.29219,2.01563 6.78594,3.79609 10.2125,5.57656c7.69297,3.96406 15.08359,8.49922 22.77656,12.49687c3.86328,1.98203 7.76016,3.82969 11.62344,5.84531c1.84766,0.97422 3.69531,1.91484 5.61016,2.75469c0.83984,0.36953 1.6125,0.60469 2.41875,0.06719c0.33594,-0.20156 0.60469,-0.47031 0.73906,-0.83984c0.03359,-0.06719 0.03359,-0.13437 0.06719,-0.20156c9.43984,-6.85312 19.55156,-12.66484 29.26016,-19.11484c4.93828,-3.29219 9.77578,-6.75234 14.31094,-10.61563c1.54531,-1.31016 3.19141,-2.55313 4.80391,-3.79609zM129.67188,83.11094c-0.73906,0.57109 -1.47813,1.14219 -2.15,1.74687c-4.50156,3.86328 -9.37266,7.32344 -14.31094,10.61563c-9.80938,6.55078 -20.05547,12.39609 -29.59609,19.35c-2.92266,-1.34375 -5.74453,-2.88906 -8.6,-4.36719c-3.52734,-1.81406 -7.12187,-3.49375 -10.64922,-5.34141c-6.88672,-3.66172 -13.57188,-7.69297 -20.49219,-11.2875c-2.98984,-1.54531 -5.9125,-3.19141 -8.86875,-4.8375c-1.14219,-0.63828 -2.38516,-1.37734 -3.25859,-2.35156c-0.77266,-0.90703 0.06719,-2.82187 0.30234,-3.82969c0.40313,-1.54531 0.13438,-3.05703 0.20156,-4.63594c0.06719,-1.84766 0.33594,-3.69531 0.50391,-5.50938c0.26875,-2.98984 0.13437,-6.04687 0,-9.03672c2.35156,2.25078 5.64375,3.72891 8.33125,5.34141c4.53516,2.75469 8.90234,5.71094 13.37031,8.49922c8.66719,5.375 17.97266,9.675 26.47187,15.31875c0.30234,0.73906 1.14219,1.10859 1.91484,1.10859c1.17578,-0.03359 1.81406,-0.90703 2.62031,-1.64609c1.24297,-1.14219 2.51953,-2.25078 3.79609,-3.39297c2.38516,-2.08281 4.80391,-4.13203 7.25625,-6.18125c5.07266,-4.23281 10.27969,-8.29766 15.48672,-12.39609c5.00547,-3.96406 10.24609,-7.62578 15.28516,-11.55625c0.77266,-0.60469 1.51172,-1.41094 2.31797,-1.98203c0.26875,7.89453 0.50391,15.75547 0.57109,23.65c-0.97422,0.47031 -1.51172,1.84766 -0.50391,2.72109z"></path><path d="M135.88672,123.28906c-0.13438,0.10078 -0.30234,0.23516 -0.43672,0.33594c-0.06719,-8.56641 -0.33594,-17.13281 -0.63828,-25.66562c0.87344,-1.34375 0.20156,-2.98984 -1.6125,-3.42656c-1.27656,-0.33594 -2.04922,0.67188 -2.04922,1.71328c-0.16797,0.10078 -0.33594,0.20156 -0.50391,0.26875c-0.94063,0.50391 -1.78047,1.14219 -2.62031,1.81406c-2.04922,1.67969 -4.23281,3.19141 -6.38281,4.77031c-4.50156,3.32578 -8.90234,6.78594 -13.30313,10.24609c-4.33359,3.42656 -8.66719,6.88672 -12.9,10.41406c-2.11641,1.74688 -4.19922,3.56094 -6.28203,5.34141c-0.97422,0.83984 -1.91484,1.67969 -2.85547,2.51953c-0.47031,0.43672 -0.94062,0.83984 -1.41094,1.27656c-0.03359,0.03359 -0.20156,0.16797 -0.36953,0.33594c-0.87344,-0.63828 -1.94844,-1.10859 -2.6875,-1.57891c-2.21719,-1.37734 -4.50156,-2.72109 -6.78594,-3.99766c-4.73672,-2.6875 -9.54063,-5.20703 -14.24375,-7.89453c-4.80391,-2.75469 -9.37266,-5.94609 -14.07578,-8.86875c-1.98203,-1.24297 -3.99766,-2.48594 -6.04687,-3.69531c-1.31016,-0.77266 -2.75469,-1.54531 -3.86328,-2.62031c-0.06719,-0.97422 -0.77266,-1.94844 -1.98203,-1.91484l-0.67187,0.03359c-0.33594,0 -0.60469,0.10078 -0.83984,0.26875c-1.10859,-0.50391 -2.85547,0.20156 -2.78828,1.84766c0.16797,4.3 0.40312,8.53281 -0.03359,12.83281c-0.20156,1.98203 -0.36953,3.96406 -0.36953,5.94609c0,0.83984 0.06719,1.54531 -0.16797,2.38516c-0.23516,0.90703 -0.43672,1.81406 -0.57109,2.75469c-0.50391,3.42656 2.25078,5.30781 4.87109,6.92031c3.29219,2.01563 6.78594,3.79609 10.2125,5.57656c7.69297,3.96406 15.08359,8.49922 22.77656,12.49687c3.86328,1.98203 7.76016,3.82969 11.62344,5.84531c1.84766,0.97422 3.69531,1.91484 5.61016,2.75469c0.83984,0.36953 1.6125,0.60469 2.41875,0.06719c0.33594,-0.20156 0.60469,-0.47031 0.73906,-0.83984c0.03359,-0.06719 0.03359,-0.13438 0.06719,-0.20156c9.43984,-6.85312 19.55156,-12.66484 29.26016,-19.11484c4.93828,-3.29219 9.77578,-6.78594 14.31094,-10.61563c1.54531,-1.31016 3.19141,-2.55312 4.80391,-3.79609zM131.25078,126.88359c-0.73906,0.57109 -1.47812,1.14219 -2.15,1.74688c-4.50156,3.86328 -9.37266,7.32344 -14.31094,10.61562c-9.80938,6.55078 -20.05547,12.39609 -29.59609,19.35c-2.92266,-1.34375 -5.74453,-2.88906 -8.6,-4.36719c-3.52734,-1.81406 -7.12188,-3.49375 -10.64922,-5.34141c-6.88672,-3.66172 -13.57187,-7.69297 -20.49219,-11.2875c-2.98984,-1.54531 -5.9125,-3.19141 -8.86875,-4.8375c-1.14219,-0.63828 -2.38516,-1.37734 -3.25859,-2.35156c-0.77266,-0.90703 0.06719,-2.82187 0.30234,-3.82969c0.40313,-1.54531 0.13438,-3.05703 0.20156,-4.63594c0.06719,-1.84766 0.33594,-3.69531 0.50391,-5.50937c0.26875,-2.98984 0.13437,-6.04687 0,-9.03672c2.35156,2.25078 5.64375,3.72891 8.33125,5.34141c4.53516,2.75469 8.90234,5.71094 13.37031,8.49922c8.66719,5.375 17.97266,9.675 26.47188,15.31875c0.30234,0.73906 1.14219,1.10859 1.91484,1.10859c1.17578,-0.03359 1.81406,-0.90703 2.62031,-1.64609c1.24297,-1.14219 2.51953,-2.25078 3.79609,-3.39297c2.38516,-2.08281 4.80391,-4.13203 7.25625,-6.18125c5.07266,-4.23281 10.27969,-8.29766 15.48672,-12.39609c5.00547,-3.96406 10.27969,-7.62578 15.28516,-11.55625c0.77266,-0.60469 1.51172,-1.41094 2.31797,-1.98203c0.26875,7.89453 0.50391,15.75547 0.57109,23.65c-1.00781,0.47031 -1.54531,1.84766 -0.50391,2.72109z"></path></g></g></svg>